<svg width="241" height="47" viewBox="0 0 241 47" fill="none" xmlns="http://www.w3.org/2000/svg">
<g clip-path="url(#clip0_6187_830)">
<path d="M160.734 17.1588L160.653 19.8954C160.651 19.9436 160.633 19.9897 160.601 20.0261C160.569 20.0626 160.526 20.0873 160.479 20.0963L151.97 21.757C151.939 21.7629 151.907 21.762 151.877 21.7542C151.846 21.7464 151.818 21.7319 151.793 21.7119C151.769 21.6919 151.749 21.6667 151.736 21.6383C151.722 21.6098 151.715 21.5787 151.715 21.5472V3.80615C151.715 3.7564 151.733 3.70826 151.764 3.66998C151.796 3.6317 151.841 3.60566 151.89 3.59633L155.046 3.00258C155.077 2.99668 155.109 2.99766 155.139 3.00547C155.17 3.01327 155.198 3.0277 155.223 3.04774C155.247 3.06777 155.267 3.09291 155.28 3.12137C155.294 3.14983 155.301 3.18091 155.301 3.2124V17.699C155.301 17.7305 155.308 17.7616 155.322 17.79C155.335 17.8185 155.355 17.8436 155.379 17.8637C155.404 17.8837 155.432 17.8981 155.463 17.9059C155.494 17.9137 155.526 17.9147 155.557 17.9088L160.479 16.9445C160.51 16.9386 160.542 16.9396 160.573 16.9477C160.604 16.9558 160.633 16.9706 160.658 16.9911C160.682 17.0116 160.702 17.0373 160.715 17.0664C160.728 17.0954 160.735 17.127 160.734 17.1588Z" fill="white"/>
<path d="M136.591 20.2707C135.076 19.079 134.202 17.2056 134.162 15.0627C134.121 12.9198 134.918 10.6828 136.376 8.844C137.098 7.9335 137.961 7.14814 138.915 6.53276C139.869 5.91738 140.896 5.48404 141.937 5.25747C142.978 5.0309 144.013 5.01554 144.983 5.21227C145.952 5.409 146.837 5.81397 147.588 6.40405C149.103 7.59577 149.977 9.46915 150.017 11.6121C150.057 13.755 149.261 15.9919 147.803 17.8308C147.08 18.7413 146.218 19.5267 145.264 20.142C144.309 20.7574 143.282 21.1908 142.241 21.4173C141.2 21.6439 140.165 21.6593 139.196 21.4625C138.226 21.2658 137.341 20.8608 136.591 20.2707ZM138.81 17.5061C139.718 18.2125 140.933 18.4507 142.188 18.1684C143.443 17.886 144.636 17.1063 145.503 16.0007C145.933 15.4533 146.27 14.8423 146.494 14.2027C146.719 13.5631 146.827 12.9073 146.813 12.2729C146.799 11.6385 146.663 11.0378 146.412 10.5052C146.161 9.97259 145.8 9.51844 145.351 9.16869C144.443 8.46234 143.228 8.22412 141.973 8.50644C140.717 8.78876 139.525 9.56849 138.657 10.6741C138.228 11.2215 137.891 11.8325 137.666 12.4721C137.442 13.1117 137.333 13.7675 137.347 14.4019C137.362 15.0363 137.498 15.637 137.749 16.1696C138 16.7022 138.36 17.1564 138.81 17.5061Z" fill="white"/>
<path d="M125.268 12.2035V26.7972C125.268 26.9044 125.216 26.9683 125.111 26.9892L122.224 27.5606C121.869 27.632 121.692 27.4862 121.695 27.1231L121.825 9.6856C121.825 9.54274 121.896 9.45494 122.036 9.42221C124.398 8.89096 129.043 7.60078 131.073 8.55613C134.848 10.3374 131.158 16.9936 129.715 19.324C129.625 19.4668 129.639 19.5978 129.755 19.7169C131.91 21.9192 134.553 22.9296 137.685 22.7481C137.889 22.7362 137.989 22.8329 137.986 23.0383L137.909 26.141C137.904 26.3195 137.812 26.4148 137.636 26.4267C133.346 26.7258 128.33 24.5918 125.945 20.8285C125.852 20.6821 125.802 20.513 125.8 20.3402C125.799 20.1675 125.846 19.9979 125.936 19.8508C126.752 18.516 129.921 12.9535 128.361 11.6677C128.248 11.5755 128.119 11.5383 127.976 11.5561L125.546 11.8865C125.469 11.8962 125.399 11.9338 125.348 11.9921C125.297 12.0504 125.268 12.1255 125.268 12.2035Z" fill="white"/>
<path d="M114.562 25.8596L119.704 24.8195C119.726 24.8148 119.749 24.8152 119.772 24.8206C119.794 24.8261 119.815 24.8366 119.832 24.8512C119.85 24.8658 119.864 24.8841 119.874 24.9049C119.883 24.9257 119.888 24.9484 119.887 24.9713V27.8373C119.887 27.872 119.875 27.9054 119.853 27.9322C119.831 27.959 119.8 27.9775 119.766 27.9846L111.106 29.6811C111.084 29.6857 111.061 29.6854 111.039 29.6802C111.017 29.6749 110.996 29.6649 110.979 29.6508C110.961 29.6367 110.947 29.6189 110.937 29.5986C110.927 29.5784 110.922 29.5562 110.922 29.5338V11.6409C110.922 11.6056 110.935 11.5717 110.958 11.5448C110.981 11.5179 111.013 11.4998 111.047 11.4936L119.372 9.90876C119.394 9.90487 119.416 9.90574 119.437 9.91132C119.459 9.91691 119.479 9.92706 119.496 9.94107C119.513 9.95509 119.527 9.97264 119.536 9.9925C119.546 10.0124 119.551 10.0341 119.551 10.0561V12.3686C119.551 12.4032 119.539 12.4367 119.517 12.4635C119.495 12.4903 119.464 12.5088 119.43 12.5159L114.548 13.4802C114.514 13.4873 114.484 13.5058 114.462 13.5326C114.44 13.5594 114.428 13.5929 114.427 13.6275L114.414 18.0248C114.414 18.0473 114.419 18.0695 114.429 18.0897C114.439 18.11 114.453 18.1278 114.471 18.1419C114.488 18.156 114.509 18.166 114.531 18.1712C114.553 18.1765 114.576 18.1768 114.598 18.1721L118.475 17.4266C118.497 17.4227 118.519 17.4236 118.541 17.4292C118.562 17.4348 118.582 17.4449 118.599 17.4589C118.616 17.4729 118.63 17.4905 118.64 17.5104C118.649 17.5302 118.654 17.5519 118.655 17.5739V19.7659C118.654 19.8012 118.641 19.8351 118.618 19.862C118.596 19.8889 118.564 19.907 118.529 19.9132L114.557 20.6855C114.523 20.6927 114.493 20.7112 114.471 20.738C114.449 20.7648 114.437 20.7982 114.436 20.8329L114.378 25.7079C114.378 25.7307 114.382 25.7534 114.392 25.7742C114.401 25.795 114.415 25.8134 114.433 25.828C114.451 25.8426 114.472 25.853 114.494 25.8585C114.516 25.864 114.539 25.8644 114.562 25.8596Z" fill="white"/>
<path d="M91.5343 15.3999C91.5343 14.9564 91.4043 14.9148 91.1443 15.2749C86.4553 21.8047 83.7866 29.0978 83.1381 37.1544C83.1326 37.2235 83.1054 37.2892 83.0603 37.342C83.0153 37.3949 82.9546 37.4323 82.887 37.449L79.4084 38.3374C79.25 38.3791 79.1768 38.318 79.1888 38.1544C79.9209 28.071 83.5789 19.2273 90.1626 11.6231C90.2642 11.51 90.3897 11.4401 90.5391 11.4133L94.9232 10.6276C95.1803 10.5799 95.3103 10.6871 95.3132 10.949L95.3581 34.7749C95.3578 34.8429 95.3345 34.9088 95.2921 34.9616C95.2497 35.0143 95.1908 35.0508 95.125 35.0651L91.8526 35.757C91.6404 35.8017 91.5343 35.7154 91.5343 35.4981V28.9847C91.5339 28.9432 91.5242 28.9023 91.5061 28.865C91.488 28.8277 91.4618 28.795 91.4295 28.7693C91.3972 28.7435 91.3597 28.7255 91.3196 28.7164C91.2795 28.7073 91.238 28.7075 91.1981 28.7169L86.2446 29.7927C86.0205 29.8433 85.9398 29.757 86.0026 29.5338L86.9394 26.1767C86.9572 26.1145 86.9912 26.0583 87.0378 26.0143C87.0844 25.9703 87.1418 25.94 87.2039 25.9267L91.3326 25.1052C91.467 25.0785 91.5343 24.9966 91.5343 24.8597V15.3999Z" fill="white"/>
<path d="M102.882 13.1364C104.985 12.7703 108.459 12.0561 109.006 15.1543C109.786 19.5739 105.124 24.9355 102.205 27.8105C101.439 28.565 101.771 30.2793 101.703 31.2748C101.698 31.3366 101.673 31.3952 101.632 31.4418C101.591 31.4884 101.536 31.5206 101.475 31.5337L98.4129 32.1632C98.2366 32.1989 98.1484 32.1275 98.1484 31.9489V14.2793C98.1484 14.1275 98.2232 14.0352 98.3726 14.0025C99.8818 13.684 101.385 13.3953 102.882 13.1364ZM104.644 15.998L101.896 16.3328C101.693 16.3596 101.593 16.4742 101.596 16.6766L101.685 23.1945C101.688 23.4326 101.766 23.4608 101.918 23.2793C103.187 21.748 105.895 18.6052 105.375 16.498C105.335 16.3395 105.239 16.2008 105.104 16.1086C104.969 16.0164 104.806 15.977 104.644 15.998Z" fill="white"/>
<path d="M130.903 36.3552C128.209 38.324 125.707 36.0025 127.187 33.2124C128.065 31.565 130.697 30.5874 132.073 32.315C133.619 34.2659 131.347 40.8507 128.854 40.2034C128.708 40.1677 128.685 40.0948 128.787 39.9847C129.752 38.9549 130.52 37.7957 131.091 36.507C131.102 36.4819 131.105 36.4538 131.098 36.4272C131.092 36.4005 131.077 36.3767 131.055 36.3594C131.034 36.3422 131.007 36.3324 130.98 36.3316C130.952 36.3309 130.925 36.3392 130.903 36.3552ZM128.465 35.5779C128.609 35.6981 128.781 35.782 128.972 35.8246C129.162 35.8673 129.367 35.8679 129.575 35.8266C129.784 35.7852 129.991 35.7025 130.185 35.5834C130.379 35.4643 130.557 35.311 130.707 35.1322C130.858 34.9535 130.979 34.7528 131.063 34.5417C131.147 34.3305 131.193 34.113 131.197 33.9016C131.202 33.6903 131.166 33.4891 131.091 33.3096C131.015 33.1302 130.903 32.9759 130.759 32.8557C130.615 32.7355 130.443 32.6517 130.252 32.609C130.062 32.5663 129.856 32.5657 129.648 32.6071C129.44 32.6485 129.233 32.7311 129.039 32.8502C128.844 32.9694 128.667 33.1227 128.516 33.3014C128.366 33.4802 128.245 33.6808 128.161 33.892C128.077 34.1031 128.031 34.3206 128.026 34.532C128.022 34.7434 128.058 34.9446 128.133 35.124C128.208 35.3035 128.321 35.4577 128.465 35.5779Z" fill="white"/>
<path d="M136.048 34.1186C136.042 34.0501 136.063 33.9818 136.106 33.9284C136.15 33.8751 136.212 33.8408 136.281 33.8329L148.546 32.3061C149.912 32.1365 149.931 32.2317 148.604 32.5918L136.631 35.8195C136.344 35.8969 136.188 35.7882 136.165 35.4936L136.048 34.1186Z" fill="white"/>
<path d="M124.758 39.7124L125.892 39.449C125.925 39.4416 125.959 39.4417 125.992 39.4493C126.025 39.4569 126.056 39.4717 126.082 39.4927C126.108 39.5138 126.129 39.5404 126.144 39.5707C126.158 39.601 126.166 39.6342 126.166 39.6678V40.4044C126.167 40.4572 126.149 40.5087 126.115 40.5495C126.081 40.5904 126.034 40.6181 125.982 40.6276L121.58 41.4401C121.544 41.4466 121.507 41.4443 121.472 41.4333C121.437 41.4223 121.405 41.403 121.38 41.377C121.354 41.351 121.335 41.3192 121.325 41.2843C121.314 41.2493 121.313 41.2124 121.32 41.1767L121.45 40.4937C121.459 40.4481 121.482 40.4064 121.515 40.3744C121.549 40.3424 121.592 40.3217 121.638 40.3151L122.947 40.1187C123 40.1112 123.049 40.085 123.084 40.0449C123.12 40.0047 123.139 39.9533 123.14 39.8999V34.2928C123.14 34.2587 123.133 34.2251 123.118 34.1943C123.103 34.1636 123.082 34.1367 123.055 34.1156C123.028 34.0945 122.997 34.0797 122.963 34.0725C122.93 34.0653 122.895 34.0658 122.862 34.074L121.504 34.4088C121.46 34.4202 121.414 34.4183 121.372 34.4033C121.33 34.3883 121.293 34.361 121.266 34.3249C121.239 34.2888 121.224 34.2456 121.223 34.2008C121.221 34.1561 121.233 34.1119 121.257 34.074L121.777 33.2347C121.794 33.2078 121.816 33.1848 121.842 33.1671C121.869 33.1494 121.898 33.1374 121.93 33.132L124.22 32.7035C124.252 32.6976 124.286 32.6988 124.317 32.7071C124.349 32.7154 124.379 32.7305 124.404 32.7513C124.429 32.7722 124.449 32.7983 124.463 32.8278C124.477 32.8574 124.485 32.8896 124.485 32.9222V39.4937C124.485 39.5272 124.492 39.5604 124.507 39.5907C124.521 39.621 124.542 39.6477 124.568 39.6687C124.595 39.6897 124.625 39.7046 124.658 39.7121C124.691 39.7197 124.725 39.7198 124.758 39.7124Z" fill="white"/>
<path d="M118.719 38.7883C116.903 39.9936 114.416 39.4936 114.604 36.9936C114.873 33.4177 120.526 32.141 120.409 36.766C120.369 38.5204 119.051 42.9222 116.782 42.6633C116.678 42.6514 116.654 42.6023 116.711 42.516L118.97 39.0383C118.992 39.0028 119.001 38.9608 118.996 38.9192C118.992 38.8776 118.973 38.8389 118.944 38.8097C118.914 38.7804 118.876 38.7623 118.835 38.7585C118.794 38.7546 118.753 38.7651 118.719 38.7883ZM116.313 38.0019C116.459 38.12 116.634 38.201 116.825 38.2404C117.017 38.2797 117.223 38.2766 117.432 38.2312C117.64 38.1858 117.847 38.099 118.04 37.9758C118.232 37.8527 118.408 37.6954 118.556 37.5132C118.856 37.1451 119.025 36.6974 119.028 36.2686C119.03 35.8397 118.866 35.4648 118.57 35.2264C118.423 35.1083 118.249 35.0273 118.057 34.988C117.865 34.9487 117.659 34.9518 117.451 34.9972C117.243 35.0425 117.036 35.1293 116.843 35.2525C116.65 35.3757 116.475 35.5329 116.327 35.7152C116.027 36.0832 115.858 36.5309 115.855 36.9598C115.853 37.3886 116.017 37.7635 116.313 38.0019Z" fill="white"/>
<path d="M112.543 42.2079L113.633 41.8597C113.669 41.8486 113.707 41.846 113.744 41.8521C113.781 41.8583 113.816 41.873 113.847 41.8951C113.877 41.9172 113.902 41.9461 113.92 41.9795C113.937 42.0129 113.946 42.0498 113.946 42.0874V42.7302C113.946 42.888 113.87 42.9817 113.718 43.0115L109.518 43.8686C109.484 43.8752 109.45 43.8744 109.417 43.8663C109.384 43.8581 109.354 43.8428 109.328 43.8214C109.302 43.8001 109.281 43.7732 109.266 43.7428C109.252 43.7123 109.244 43.6791 109.244 43.6454V43.0249C109.244 42.8255 109.344 42.7109 109.544 42.6811L110.71 42.5115C110.925 42.4817 111.033 42.3582 111.033 42.1409V36.7481C111.033 36.7105 111.024 36.6733 111.008 36.6393C110.992 36.6053 110.969 36.5752 110.94 36.5513C110.91 36.5274 110.876 36.5103 110.84 36.501C110.803 36.4918 110.765 36.4908 110.728 36.4981L109.388 36.7436C109.169 36.7853 109.087 36.699 109.141 36.4847C109.45 35.2838 111.082 35.2615 111.996 35.1409C112.185 35.1142 112.279 35.196 112.279 35.3865L112.256 41.9981C112.256 42.1975 112.352 42.2674 112.543 42.2079Z" fill="white"/>
<path d="M105.905 39.9758C105.89 40.4371 105.879 40.8955 105.873 41.3508C105.87 41.4907 105.8 41.5696 105.663 41.5874L93.3128 43.1678C92.0218 43.3344 92.0053 43.2481 93.2635 42.9089L105.739 39.5428C105.764 39.5359 105.791 39.5341 105.817 39.5373C105.843 39.5406 105.868 39.5489 105.89 39.5618C105.913 39.5747 105.933 39.5919 105.948 39.6124C105.964 39.6329 105.975 39.6563 105.981 39.6812C106.014 39.8062 105.989 39.9044 105.905 39.9758Z" fill="white"/>
</g>
<defs>
<clipPath id="clip0_6187_830">
<rect width="240" height="46" fill="white" transform="translate(0.0546875 0.718994)"/>
</clipPath>
</defs>
</svg>
