<svg width="241" height="47" viewBox="0 0 241 47" fill="none" xmlns="http://www.w3.org/2000/svg">
<path d="M155.908 38.1157C155.355 38.0599 154.401 37.9147 153.787 37.793C152.469 37.5316 149.362 36.695 149.228 36.5655C149.177 36.5158 149.177 35.2159 149.228 33.6768L149.321 30.8785L150.103 31.3889C151.236 32.129 153.408 33.1556 154.568 33.4994C155.79 33.8616 157.632 33.9784 158.858 33.7716C160.426 33.5071 161.858 32.5709 162.382 31.468C162.796 30.5937 162.794 29.3197 162.376 28.5121C161.828 27.4513 160.429 26.4637 157.638 25.1677C153.84 23.4039 152.465 22.6156 151.258 21.5086C150.419 20.739 149.662 19.6078 149.301 18.5853C148.915 17.4884 148.823 15.7691 149.09 14.632C150.076 10.4316 154.796 8.0023 160.708 8.65317C161.26 8.71403 162.412 8.8733 163.267 9.00712C164.62 9.21903 164.933 9.23405 165.691 9.12356C166.17 9.05378 166.714 8.91793 166.9 8.82166L167.238 8.64661V12.0977V15.5487L166.161 14.8284C164.829 13.9376 163.632 13.3297 162.293 12.8644C161.333 12.5304 161.168 12.5074 159.759 12.5091C158.466 12.511 158.164 12.5461 157.638 12.7578C155.872 13.4675 154.879 14.9892 155.2 16.4962C155.353 17.2194 156.129 18.0528 157.24 18.6883C157.712 18.9584 158.987 19.565 160.073 20.0362C164.648 22.0213 166.374 23.1795 167.69 25.1481C168.462 26.3023 168.81 27.4526 168.884 29.0938C169.072 33.2752 166.724 36.263 162.215 37.5814C160.551 38.0678 157.769 38.3035 155.908 38.1157ZM103.742 37.4821L99.5787 37.4514L99.8499 37.09C100.311 36.4761 100.713 35.567 101.02 34.4499L101.314 33.3795L101.35 23.3323C101.382 14.4085 101.366 13.161 101.202 12.1745C100.969 10.7682 100.594 9.75318 100.032 9.01166L99.5914 8.42908H110.069H120.546L120.506 9.68497C120.484 10.3757 120.447 11.7344 120.423 12.7042C120.399 13.674 120.35 14.4966 120.314 14.5322C120.279 14.5677 120.09 14.4619 119.894 14.297C119.416 13.8951 118.448 13.4163 117.558 13.1417C116.306 12.7556 114.934 12.6571 111.31 12.6932L107.905 12.727L107.875 16.1677L107.846 19.6084L111.615 19.5686C115.311 19.5295 115.401 19.5232 116.232 19.2432C116.698 19.0861 117.314 18.7966 117.599 18.5999L118.119 18.2422V21.6449V25.0476L117.566 24.675C116.278 23.8085 115.073 23.6133 111.003 23.6123L107.849 23.6116L107.849 27.4351C107.849 29.538 107.899 31.7899 107.961 32.4393C108.146 34.3875 108.627 35.9231 109.409 37.0601L109.757 37.566L108.831 37.5394C108.322 37.5248 106.031 37.4989 103.742 37.4821ZM124.196 37.1744C124.635 36.5997 125.117 35.5089 125.37 34.5169C125.802 32.8298 125.841 31.6684 125.795 21.9927C125.752 13.0476 125.743 12.6911 125.515 11.6875C125.249 10.517 124.726 9.30634 124.288 8.84771L123.994 8.54072H134.397H144.8V11.6099V14.6792L144.325 14.3171C143.73 13.864 142.496 13.2935 141.618 13.0654C140.442 12.7597 139.133 12.6731 135.674 12.6721L132.297 12.6715V16.2023V19.7331L135.786 19.6754C138.832 19.6251 139.383 19.5888 140.13 19.3889C141.126 19.1228 141.828 18.7926 142.26 18.3875L142.567 18.0998V21.5814C142.567 23.4962 142.525 25.0629 142.473 25.0629C142.421 25.0629 142.293 24.9681 142.188 24.8523C141.952 24.5914 140.941 24.1308 140.053 23.8801C139.512 23.7271 138.716 23.6817 135.841 23.64L132.297 23.5886V27.3755C132.297 30.3852 132.331 31.276 132.461 31.7159C132.639 32.3153 133.139 32.884 133.692 33.1157C134.149 33.3069 139.354 33.3854 140.74 33.222C142.554 33.0081 143.93 32.3102 144.604 31.2631C144.805 30.9495 144.817 30.945 144.757 31.2029C144.721 31.3564 144.691 32.8509 144.69 34.524L144.689 37.5661H134.293H123.898L124.196 37.1744ZM74.3621 36.7652C74.607 36.3863 74.9356 35.6704 75.0923 35.1744C75.6949 33.2673 75.7106 32.9171 75.6682 22.2854C75.6328 13.3916 75.6113 12.4283 75.4313 11.6729C75.1478 10.4828 74.7386 9.52681 74.2868 8.99896L73.8945 8.54072H84.1736H94.4527V11.6104V14.6802L93.7914 14.1933C93.005 13.6144 92.0185 13.2005 90.8502 12.9591C90.1674 12.8181 89.2145 12.7828 86.0848 12.7828H82.1729V16.8017V20.8206L85.2708 20.8186C89.3955 20.8155 90.6051 20.6217 91.8897 19.7573L92.4433 19.3847V22.8478V26.3108L92.0805 26.0042C91.881 25.8356 91.4414 25.5749 91.1037 25.4248C89.9407 24.908 89.2588 24.8257 85.5983 24.7604L82.1582 24.699L82.1934 28.1463C82.227 31.4211 82.2407 31.616 82.468 32.0402C83.0556 33.1367 83.4133 33.2453 86.624 33.3019C91.3693 33.3856 93.1445 32.9875 94.5682 31.5205L95.0109 31.0644V34.2594V37.4545H84.4639H73.9168L74.3621 36.7652Z" fill="white"/>
</svg>
