<svg width="241" height="47" viewBox="0 0 241 47" fill="none" xmlns="http://www.w3.org/2000/svg">
<path d="M61.1278 16.5107C62.721 15.4959 62.9717 15.4284 63.3409 15.2604C63.709 15.0936 63.709 15.1862 63.6277 15.5427C63.5453 15.9016 63.604 16.481 64.0037 17.1644C66.6687 21.7384 69.3245 26.3178 71.9709 30.9027C72.5615 31.9484 76.0652 37.6604 70.4218 41.1702C68.0257 42.6593 65.2514 42.457 63.3759 41.0582C60.8331 39.1599 59.6475 35.177 62.1226 33.2182C62.9706 32.5462 64.8145 32.6959 65.3689 33.6296C65.9221 34.5622 65.9221 34.8616 65.0742 34.9359C64.2262 35.0102 63.5984 37.0262 64.4102 38.6696C65.2209 40.3119 67.8405 41.6193 69.5738 40.2753C70.4455 39.5999 70.7944 38.4456 70.6069 37.2879C70.4387 36.2456 69.8041 35.233 69.1323 34.0776C68.763 33.4422 60.9065 20.1519 60.5745 19.5553C60.2426 18.9576 59.7266 18.3976 59.5052 18.3222C59.2839 18.2479 58.6019 18.3405 59.3212 17.7804C59.9025 17.3276 60.5055 16.9038 61.1278 16.5107ZM71.1715 17.8856C71.5249 17.681 72.1313 17.3884 72.6721 17.1393C73.213 16.8902 73.8284 16.617 74.0993 16.5427C74.3692 16.4684 74.5905 16.369 75.058 16.9656C75.5254 17.5622 84.4513 29.8342 84.7708 30.281C85.0915 30.729 85.9519 31.5256 86.2963 31.6753C86.6418 31.825 87.0099 31.9244 86.4928 32.1484C85.9756 32.3724 81.9435 34.1393 81.6239 34.289C81.3044 34.4376 81.2547 34.2147 81.4523 33.9896C81.6488 33.7656 81.6239 33.0182 81.3292 32.521C81.0345 32.0216 79.9268 30.4799 79.7304 30.2559C79.5339 30.033 79.386 29.8833 78.8937 30.0822C78.4002 30.281 76.6817 31.1279 76.5089 31.3016C76.3373 31.4764 76.3373 31.5999 76.3859 31.8742C76.4355 32.1485 77.0249 34.7107 77.0983 35.0604C77.1729 35.409 77.3456 35.6079 77.6652 35.7324C77.9847 35.857 78.4025 35.9816 78.1078 36.1062C77.812 36.2307 75.845 37.2765 75.6982 37.3256C75.5514 37.3747 75.5751 37.201 75.723 36.753C75.8698 36.305 75.7964 35.6079 75.6982 35.2342C75.6 34.8616 72.4034 20.5496 72.33 20.1759C72.2566 19.8022 72.0838 19.2547 71.8874 19.0067C71.702 18.781 71.5053 18.5651 71.298 18.3599C71.1715 18.2342 70.4839 18.2844 71.1715 17.8856ZM74.6888 24.1576C74.7373 24.3816 75.7953 28.961 75.9173 29.3587C76.0403 29.7565 76.1883 29.9564 76.4581 29.833C76.7291 29.7084 77.6877 29.2102 78.0818 29.0113C78.4759 28.8125 78.5493 28.4879 78.3031 28.1656C78.057 27.841 75.1551 23.9096 75.1551 23.9096C74.8118 23.561 74.6402 23.9336 74.6888 24.1576ZM85.9271 11.9873C86.5165 11.9873 86.8609 12.0125 87.0822 11.7885C87.3035 11.5645 87.5496 11.017 87.8206 11.6147C88.0905 12.2113 88.165 12.3862 88.2633 12.809C88.3615 13.2319 88.5828 13.8296 88.5828 14.0536C88.5828 14.2776 88.558 14.353 88.165 13.8799C87.7709 13.4067 86.6158 12.3119 85.4359 12.6604C84.2559 13.009 84.1814 14.8753 84.379 15.7473C84.5755 16.6182 85.3377 19.3804 86.0264 21.6707C86.7152 23.9599 88.1661 28.4159 89.0751 29.5107C89.9852 30.6056 91.1403 30.3062 91.5344 29.6845C91.9284 29.0627 92.0989 28.0422 91.977 27.0719C91.8539 26.1005 91.5095 25.329 91.2645 24.9804C91.0183 24.633 90.5023 23.8364 91.461 24.409C92.4207 24.9804 93.2563 26.3496 93.2563 27.7439C93.2563 29.5359 91.8302 31.1039 89.616 31.1039C87.4028 31.1039 83.9353 28.7142 82.1162 22.7656C80.2972 16.817 81.9198 14.0044 82.8536 13.1084C83.6846 12.3096 84.6478 11.9873 85.9271 11.9873ZM90.4504 10.649C90.8106 10.5107 91.8347 10.2764 92.3507 10.1644C92.8679 10.0524 94.1077 9.89131 94.3245 9.84674C94.8777 9.73473 94.583 10.1462 94.5458 10.4822C94.5085 10.8182 94.5638 11.1164 94.6564 11.4719C94.749 11.8262 95.5417 15.4479 95.6704 15.8022C95.7991 16.1576 96.1503 16.5496 96.5003 15.6536C96.8515 14.7576 98.3442 10.7633 98.474 10.3702C98.6039 9.97816 98.3815 9.53016 98.2155 9.34388C98.0495 9.15645 97.8191 8.96902 98.4187 8.83988C98.6773 8.78388 98.8613 8.69131 99.3401 8.59759C99.82 8.50388 100.687 8.35416 100.89 8.37359C101.094 8.39302 100.871 8.67188 100.651 8.76559C100.43 8.85931 100.134 9.43759 100.042 9.64331C99.9498 9.84902 97.7187 15.9153 97.5719 16.177C97.4239 16.4387 97.4612 17.2593 98.2911 17.2593C99.121 17.2593 99.9882 17.2399 100.338 17.2593C100.688 17.2787 101.074 17.3907 101.297 17.8947C101.519 18.3987 104.709 25.7164 104.82 25.977C104.93 26.2387 105.133 26.425 105.336 26.5736C105.539 26.7222 105.65 27.0593 105.152 27.097C104.654 27.1347 103.363 27.3953 102.919 27.4513C102.477 27.5073 101.795 27.6193 101.629 27.657C101.463 27.6947 101.131 27.713 100.91 27.0787C100.688 26.4433 97.5165 19.2936 97.3878 19.0147C97.258 18.7347 97.0005 18.473 96.7228 18.5302C96.4472 18.585 96.4472 19.2204 96.5195 19.4822C96.594 19.7439 98.2166 26.6696 98.29 26.9484C98.3634 27.2284 98.5666 27.6022 98.7507 27.7519C98.9359 27.9004 99.138 28.1244 98.5113 28.2924C97.8835 28.4604 95.0618 29.3004 94.8032 29.3759C94.5458 29.4502 94.3617 29.3942 94.5085 28.9473C94.6564 28.4982 94.5085 27.8456 94.4159 27.3976C94.3233 26.9496 90.8196 12.3153 90.6898 11.849C90.561 11.3827 90.3397 11.2136 90.2471 11.0639C90.1557 10.9107 90.0631 10.7987 90.4504 10.649ZM107.898 1.41016C108.563 1.34502 111.587 0.999878 112.397 0.999878C113.208 0.999878 119.811 1.74616 120.032 12.7599C120.254 23.8456 116.496 25.7165 113.651 26.0879C111.364 26.3862 110.22 26.3862 109.888 26.3862C109.557 26.3862 108.855 26.5347 109.041 26.1622C109.226 25.7884 109.335 24.8924 109.262 24.2582C109.188 23.6239 107.675 3.09016 107.602 2.75531C107.529 2.41931 107.529 2.11988 107.343 1.93359C107.159 1.74616 106.754 1.52216 107.898 1.41016ZM113.247 23.6982C113.303 24.2182 113.393 24.9667 113.91 24.8925C114.148 24.8582 115.42 24.6044 115.938 23.1016C116.545 21.3427 116.367 17.9747 116.049 12.7222C115.814 8.84445 115.649 5.58731 114.832 3.79988C114.171 2.35531 112.881 1.99873 112.361 2.04445C111.513 2.11873 111.669 3.23416 111.697 3.46274C111.696 3.46274 113.172 23.0262 113.247 23.6982ZM124.458 6.87073C124.865 6.86959 125.536 6.91645 126.129 6.96902C126.721 7.02273 127.389 7.09131 127.659 7.16102C127.93 7.23074 128.17 7.25473 128.289 8.00788C128.405 8.75988 130.195 23.889 130.254 24.4387C130.315 24.9873 130.675 26.1096 130.901 26.4124C131.125 26.7142 131.399 26.9839 130.841 26.9222C129.081 26.7279 127.321 26.539 125.561 26.3553C125.21 26.3256 125.276 26.1062 125.556 26.009C125.836 25.9119 126.179 25.2502 126.165 24.6696C126.149 24.0902 125.94 22.1953 125.878 21.9016C125.814 21.609 125.76 21.4044 125.235 21.3324C124.71 21.2604 122.8 21.1382 122.566 21.2033C122.33 21.2696 122.271 21.377 122.18 21.6399C122.09 21.9027 121.356 24.4273 121.25 24.7667C121.144 25.1073 121.197 25.3656 121.415 25.6342C121.632 25.9016 121.935 26.2182 121.621 26.1804C121.304 26.1416 119.081 26.0696 118.93 26.0387C118.777 26.009 118.883 25.8696 119.23 25.553C119.576 25.2364 119.852 24.5942 119.948 24.2193C120.044 23.8456 124.234 9.79873 124.352 9.43759C124.469 9.07645 124.585 8.51302 124.535 8.19873C124.486 7.88445 124.383 7.51073 124.337 7.34159C124.291 7.17245 123.667 6.87302 124.458 6.87073ZM124.463 14.0822C124.398 14.3016 123.086 18.8136 123 19.2216C122.913 19.6284 122.945 19.8753 123.242 19.9027C123.538 19.929 124.614 19.9736 125.053 19.9976C125.494 20.0204 125.714 19.7759 125.659 19.3713C125.6 18.9667 124.992 14.0982 124.992 14.0982C124.864 13.6239 124.533 13.8627 124.463 14.0822ZM136.039 8.27873C136.227 8.30388 137.518 8.57702 137.811 8.65245C138.105 8.72673 138.587 8.91416 138.77 9.66045C138.955 10.4067 141.096 19.7027 141.279 20.1519C141.463 20.5999 141.722 20.7119 142.016 19.7027C142.313 18.6947 144.376 11.713 144.486 11.265C144.597 10.817 144.373 10.2947 144.228 10.1462C144.08 9.99645 144.043 9.66045 144.486 9.77245C144.929 9.88445 146.515 10.2959 146.736 10.4444C146.956 10.5942 146.994 10.7062 146.663 10.8559C146.33 11.0044 146.034 11.4513 145.926 11.9004C145.818 12.3496 141.388 28.401 141.315 28.7004C141.244 28.9987 141.279 29.1484 141.02 29.1107C140.761 29.073 139.581 28.849 139.396 28.737C139.211 28.625 139.026 28.2513 138.878 27.3176C138.732 26.385 136.886 17.6856 136.814 17.3496C136.739 17.0136 136.298 16.8262 136.187 17.2753C136.074 17.7244 134.526 26.049 134.417 26.385C134.304 26.721 134.489 27.169 134.565 27.3176C134.637 27.4673 134.6 27.8033 134.011 27.6536C133.423 27.505 132.906 27.4296 132.646 27.3176C132.388 27.2056 132.279 27.0193 132.536 26.6833C132.794 26.3473 132.866 25.825 132.977 25.3759C133.092 24.9279 136.004 10.5176 136.113 9.91988C136.223 9.32216 135.928 9.02388 135.745 8.80102C135.559 8.57816 135.488 8.20331 136.039 8.27873ZM151.642 11.8627C152.179 12.033 153.377 12.4227 153.637 12.5725C153.896 12.7222 153.93 12.8719 153.637 13.0947C153.34 13.3187 153.119 13.5804 152.9 14.1782C152.679 14.7747 147.844 28.9622 147.66 29.4845C147.477 30.0079 147.589 30.4182 147.623 30.6422C147.66 30.8662 147.772 31.3142 147.181 31.1279C146.008 30.7417 144.84 30.3436 143.676 29.9336C143.38 29.8216 143.232 29.5233 143.528 29.2616C143.824 29.001 144.007 28.3667 144.116 28.0673C144.229 27.769 149.023 13.6193 149.208 13.0227C149.391 12.425 149.429 11.7907 149.319 11.5279C149.208 11.2662 149.539 11.1919 149.761 11.2662C149.985 11.3404 151.053 11.6764 151.642 11.8627ZM157.287 13.953C157.759 14.129 162.931 16.2673 163.335 16.4925C163.739 16.7165 163.851 17.0147 163.78 17.4627C163.708 17.9107 163.335 19.441 163.227 19.7404C163.116 20.0387 162.859 20.3747 162.783 19.4044C162.711 18.4342 162.118 17.2022 161.454 16.7907C160.79 16.3804 160.238 16.0456 159.794 17.0524C159.35 18.0604 157.877 21.8319 157.765 22.1302C157.654 22.4296 157.469 22.9884 158.096 23.2502C158.724 23.5119 159.498 23.2124 159.758 22.9507C160.017 22.689 160.31 22.2787 160.422 22.0182C160.534 21.7576 160.902 21.4216 160.571 22.2422C160.238 23.0639 158.653 26.8719 158.505 27.1702C158.357 27.4685 158.174 27.2067 158.357 26.7599C158.541 26.3096 158.393 25.6022 158.322 25.3404C158.247 25.0787 158.063 24.6319 157.621 24.4079C157.177 24.1839 156.845 24.2959 156.66 24.8182C156.476 25.3405 154.003 31.6879 153.781 32.1347C153.562 32.5839 153.71 32.881 154.152 33.0685C154.593 33.2559 155.147 33.2924 155.588 33.1805C156.033 33.0685 156.805 32.8079 156.916 32.7313C157.028 32.657 157.432 32.657 157.213 33.0307C156.881 33.6215 156.56 34.219 156.252 34.8227C156.141 35.0467 155.808 34.8604 155.44 34.673C155.072 34.4856 150.07 32.0582 149.759 31.9473C149.133 31.7233 149.649 31.6856 149.874 31.2376C150.093 30.7907 156.476 14.8856 156.585 14.5873C156.697 14.2902 156.293 13.5805 157.287 13.953ZM168.536 19.2182C169.154 19.5313 170.232 20.1884 170.489 20.3747C170.748 20.5622 170.748 20.8239 170.379 20.8982C170.008 20.9725 169.825 21.4582 169.567 21.8696C169.308 22.2799 162.338 35.5713 162.079 35.9439C161.821 36.3176 161.635 37.1016 162.741 37.1393C163.847 37.1759 164.837 36.9542 165.288 36.8776C165.509 36.841 165.99 36.729 165.99 36.729C165.99 36.729 166.025 36.9153 165.436 37.4376C164.846 37.961 164.33 38.5953 164.182 38.7816C164.034 38.969 163.37 38.969 162.927 38.5953C162.484 38.2216 158.06 35.9073 157.541 35.6833C157.025 35.4593 156.767 35.273 157.321 35.1233C157.876 34.9736 157.912 35.1976 158.428 34.3393C158.944 33.4799 165.99 20.2273 166.211 19.7793C166.386 19.4199 166.425 19.0083 166.322 18.6216C166.251 18.3599 166.322 18.1736 166.69 18.3233C167.061 18.4707 167.799 18.8444 168.536 19.2182ZM175.69 16.5302C176.318 16.5302 177.278 16.8662 177.278 18.0239C177.278 19.1816 176.316 19.9279 175.579 20.3016C174.843 20.6742 174.399 20.5633 174.214 20.5633C174.031 20.5633 174.177 20.3393 174.473 20.0776C174.769 19.8159 174.731 19.6285 174.731 19.3679C174.731 19.1073 174.215 18.7336 174.215 17.8742C174.215 17.0147 174.919 16.5302 175.69 16.5302ZM175.73 24.1084C177.243 24.1084 178.46 24.8182 178.939 25.4524C179.417 26.0867 179.788 26.945 180.193 27.1324C180.597 27.3187 181.261 27.1324 180.892 27.841C180.524 28.5519 179.86 29.6707 179.64 29.9324C179.417 30.1942 179.106 30.1942 179.142 29.0742C179.179 27.9553 178.994 26.8342 178.406 26.2376C178.11 25.9382 177.649 25.3793 176.726 25.3793C175.768 25.3793 174.926 26.6616 174.993 28.0296C175.03 28.7759 175.438 33.2936 175.438 36.0559C175.438 39.3793 173.853 42.9999 170.715 42.9999C168.43 42.9999 167.138 41.2456 166.953 40.9096C166.77 40.5736 166.585 40.2753 166.365 40.1256C166.142 39.9759 165.811 39.9759 165.626 40.0125C165.443 40.0502 165.33 39.6764 165.554 39.3404C165.774 39.0044 166.734 37.4742 166.919 37.2867C167.102 37.1004 167.36 37.1747 167.324 37.6604C167.287 38.1462 167.176 41.5427 169.756 41.5427C171.897 41.5427 171.86 38.7805 171.86 38.1827C171.86 37.585 170.826 30.0444 171.526 27.7302C172.225 25.4147 174.366 24.1084 175.73 24.1084Z" fill="white"/>
</svg>
