<svg width="241" height="47" viewBox="0 0 241 47" fill="none" xmlns="http://www.w3.org/2000/svg">
<path fill-rule="evenodd" clip-rule="evenodd" d="M92.1286 18.5109C92.1286 18.168 92.3624 17.9847 92.656 17.9847C93.1527 17.9847 93.9026 18.5109 94.3256 19.5632C94.1739 19.5632 93.9458 19.609 93.7927 19.609C92.8883 19.609 92.1286 19.18 92.1286 18.5109ZM37.4119 18.5109C37.4119 18.168 37.6359 17.9847 37.942 17.9847C38.4262 17.9847 39.1456 18.5109 39.563 19.5632C38.166 19.5632 37.4119 19.2619 37.4119 18.5109ZM47.9654 13.073C47.9654 7.4435 49.0646 6.5786 49.4055 6.5786C50.0121 6.5786 50.0844 6.95621 50.0844 9.11499C50.0844 11.3335 49.1369 14.2364 47.9654 15.8301V13.073ZM86.3823 18.6233C85.7311 19.5285 85.2038 20.814 85.2038 22.4703C85.2038 25.6425 87.0168 28.6703 90.5397 28.6703C93.9458 28.6703 96.3319 25.9854 96.3319 22.2412C96.3319 21.1542 96.2902 21.0042 96.2192 20.553C97.0109 20.2087 97.6941 19.6826 98.2256 19.2619C98.6778 18.9218 99.0159 18.7316 99.2858 18.7316C99.6253 18.7316 99.7742 18.9968 99.7742 19.4868V26.8947C99.7742 28.1011 100.157 28.6703 101.099 28.6703C101.967 28.6703 102.578 28.0622 102.916 27.3459C104.168 24.7401 105.981 21.2666 106.773 19.9477C106.963 19.6451 107.118 19.4133 107.226 19.4133C107.378 19.4133 107.456 19.5285 107.456 20.0172V25.9146C107.456 27.5736 108.216 28.6703 109.874 28.6703C111.619 28.6703 112.484 27.003 114.009 24.4361C114.082 24.282 114.114 24.1723 114.114 24.0626C114.114 23.7225 113.819 23.5295 113.514 23.5295C113.17 23.5295 112.981 23.8724 111.848 25.1149C111.619 25.3509 111.396 25.6786 110.976 25.6786C110.826 25.6786 110.71 25.4967 110.71 25.2662V18.6553C110.71 16.8796 109.914 16.1633 108.893 16.1633C108.063 16.1633 107.378 16.5034 106.66 17.5613C105.373 19.4535 104.048 22.1371 103.332 23.4892C103.251 23.6475 103.143 23.8724 103.069 23.8724C102.99 23.8724 102.956 23.7558 102.956 23.4892V18.6553C102.956 17.2614 102.578 16.1633 101.099 16.1633C99.546 16.1633 98.7529 17.2225 97.6176 18.0139C96.8982 18.5484 96.2568 18.9218 95.767 19.1481C95.006 17.2225 93.6077 16.2466 92.4347 16.2757C91.2576 16.316 90.4256 17.0379 90.4256 18.2471C90.4256 19.4868 91.1867 20.3503 92.2038 20.7349C92.7687 20.9612 93.3002 21.0042 94.0612 21.0042C94.2894 21.0042 94.5148 21.0042 94.6609 20.9612C94.7416 21.3374 94.7054 21.8733 94.7054 22.287C94.7054 24.1404 93.6076 25.9854 91.5665 25.9854C89.4419 25.9854 88.198 23.946 88.198 21.6067C88.198 19.8297 88.7254 18.3596 89.5894 17.3433C89.9386 16.9629 90.1988 16.7325 90.1988 16.384C90.1988 16.2077 89.9386 16.1633 89.709 16.1633C88.2676 16.1633 86.6828 16.8075 85.5878 17.3711C84.1422 18.1277 82.4434 19.3786 81.0409 20.6238C80.3605 19.1092 79.5285 17.7876 79.1096 16.7644C78.9594 16.3493 78.8495 15.8676 78.5462 15.8676C78.2776 15.8676 78.1607 16.1314 77.9757 16.652C77.2967 18.6553 73.6611 24.5138 72.8666 25.3065C72.7915 25.4148 72.6816 25.5342 72.6454 25.5342C72.5633 25.5342 72.5202 25.4967 72.5202 25.2663V18.6553C72.5202 16.8797 71.8022 16.1633 70.8255 16.1633C69.9893 16.1633 69.2727 16.5034 68.5923 17.5613C67.3457 19.4535 65.8249 22.2107 65.1084 23.567C64.9929 23.8002 64.8788 23.8724 64.8398 23.8724C64.8023 23.8724 64.7717 23.7225 64.7717 23.4893V18.6553C64.7717 16.8797 64.0495 16.1633 63.0645 16.1633C62.2296 16.1633 61.4394 16.4729 60.7924 17.5613C59.2062 20.2462 56.5585 24.3625 56.0659 25.0372C55.9894 25.1538 55.9129 25.2302 55.8377 25.2663C55.7626 25.2663 55.7195 25.1927 55.7195 25.0053V18.6553C55.7195 16.8797 55.0015 16.1633 54.0234 16.1633C52.6585 16.1633 51.9057 17.4155 51.409 18.2041C50.7245 19.2994 49.8201 20.7752 49.1035 22.1371C48.6096 23.0478 48.1908 23.8724 48.0378 23.8724C47.9654 23.8724 47.9654 23.5295 47.9654 22.8895V17.8306C50.346 15.1818 51.8237 11.9374 51.8237 8.38754C51.8237 6.34399 50.9193 5.2167 49.5223 5.2167C46.9052 5.2167 44.9044 9.29686 44.9044 14.1267V18.0541C43.6911 18.8107 42.5544 19.18 41.1519 19.4535C40.4354 17.3433 38.9188 16.2466 37.7125 16.2757C36.5423 16.316 35.7061 17.0379 35.7061 18.2471C35.7061 20.2462 37.6749 21.0764 39.4113 21.0764H39.9039C39.9776 21.4568 39.9776 21.8733 39.9776 22.287C39.9776 24.1404 38.8812 25.9854 36.8429 25.9854C34.7252 25.9854 33.473 23.946 33.473 21.6067C33.473 19.8297 33.9975 18.3596 34.8685 17.3433C35.2122 16.9629 35.4793 16.6228 35.4793 16.384C35.4793 16.2077 35.2122 16.1633 34.9826 16.1633C33.5453 16.1633 30.3702 18.0972 26.583 21.8733C26.2476 18.851 25.8664 15.9023 25.8664 13.0313C25.8664 9.82301 26.5022 7.09781 26.6539 6.31205C26.7304 5.82476 26.7777 5.51795 26.7777 5.29582C26.7777 4.99179 26.6163 4.8363 26.2087 4.8363C23.1393 4.8363 16.4023 9.71056 16.4023 16.999C16.4023 22.1676 18.2988 24.6623 21.5852 27.8721C19.59 31.0831 17.9899 34.8954 17.9899 38.2953C17.9899 40.7456 18.5631 42.6017 20.3747 42.6017C24.1606 42.6017 26.9962 34.751 26.9962 28.9313C26.9962 27.196 26.9266 25.4564 26.7777 23.7225C28.1733 22.2412 30.3313 20.2462 30.8572 20.0574C30.6318 20.8515 30.4801 21.6845 30.4801 22.4703C30.4801 25.6425 32.3001 28.6703 35.816 28.6703C39.1136 28.6703 41.6069 25.9854 41.6069 22.2412C41.6069 21.7581 41.5679 21.3374 41.5345 20.8862C42.7394 20.6599 43.8483 20.3503 44.9044 19.7187V27.3084C44.9044 28.2858 45.5806 28.6703 46.2248 28.6703C47.1 28.6703 47.5535 28.0622 48.1908 26.6726C48.7265 25.5342 50.1596 22.9312 51.0292 21.3777C51.7151 20.1657 52.0936 19.3785 52.3983 19.3785C52.4692 19.3785 52.5499 19.5632 52.5499 20.0172V26.4768C52.5499 28.215 53.4585 28.6703 54.2446 28.6703C55.0015 28.6703 55.4968 28.2552 55.9894 27.5736C57.9595 24.7762 60.0438 21.4568 60.8703 20.0172C61.0233 19.7589 61.2112 19.5632 61.3642 19.5632C61.5117 19.5632 61.5882 19.6451 61.5882 20.1296V26.8947C61.5882 28.1011 61.9667 28.6703 62.917 28.6703C63.7824 28.6703 64.3487 28.0622 64.6868 27.3459C65.9446 24.7401 67.7937 21.3013 68.5923 19.9477C68.7774 19.6451 68.968 19.3785 69.0807 19.3785C69.2379 19.3785 69.2727 19.5632 69.2727 20.0574V26.4768C69.2727 28.215 70.1813 28.6703 70.9813 28.6703C72.0318 28.6703 72.7205 27.9109 73.4009 27.046C74.642 25.4148 76.4605 22.5188 77.5597 20.6599C77.9409 21.2666 78.3527 21.9857 78.6992 22.7771C77.7892 23.8724 76.8793 25.1149 76.8793 26.4352C76.8793 27.8346 77.863 28.6703 78.8856 28.6703C80.6235 28.6703 82.211 27.003 82.211 24.704C82.211 23.8002 81.9508 22.8534 81.6127 21.9496C83.1557 20.435 85.0132 18.9621 86.3823 18.6233ZM24.0437 26.8558C24.3498 28.855 24.6156 30.8235 24.6156 32.3687C24.6156 35.9879 23.4079 40.2194 21.325 40.1847C20.5208 40.1847 19.8446 39.3823 19.8112 37.9926C19.7347 33.4654 21.8913 29.6116 24.0437 26.8558ZM79.2989 24.282C79.5285 24.9317 79.6439 25.4564 79.6439 25.9854C79.6439 26.5907 79.4158 27.196 78.997 27.196C78.6992 27.196 78.3959 26.8558 78.3959 26.3255C78.3959 25.7577 78.8857 24.8512 79.2989 24.282ZM25.41 6.27179C25.41 6.50224 24.8799 7.55595 24.2009 9.44679C23.4816 11.407 22.7957 14.1989 22.7957 17.5613C22.7957 19.5632 23.2924 22.2106 23.7112 24.89L22.4993 26.5199C20.5667 24.1723 19.3576 21.5332 19.3576 16.999C19.3576 10.581 23.2548 6.12879 25.257 6.12879C25.3766 6.12879 25.41 6.16211 25.41 6.27179Z" fill="white"/>
<path fill-rule="evenodd" clip-rule="evenodd" d="M203.125 18.5109C203.125 18.168 203.346 17.9847 203.652 17.9847C204.141 17.9847 204.899 18.5109 205.314 19.5632C205.166 19.5632 204.939 19.609 204.781 19.609C203.88 19.609 203.125 19.18 203.125 18.5109ZM148.397 18.5109C148.397 18.168 148.628 17.9847 148.927 17.9847C149.42 17.9847 150.146 18.5109 150.554 19.5632C149.154 19.5632 148.397 19.2619 148.397 18.5109ZM158.958 13.073C158.958 7.4435 160.05 6.5786 160.395 6.5786C160.999 6.5786 161.075 6.95621 161.075 9.11499C161.075 11.3335 160.126 14.2364 158.958 15.8301V13.073ZM135.043 26.8558C135.336 28.855 135.612 30.8235 135.612 32.3687C135.612 35.9879 134.403 40.2194 132.316 40.1847C131.523 40.1847 130.841 39.3823 130.803 37.9926C130.725 33.4654 132.886 29.6116 135.043 26.8558ZM190.297 24.282C190.526 24.9317 190.635 25.4564 190.635 25.9854C190.635 26.5907 190.408 27.196 189.992 27.196C189.693 27.196 189.381 26.8558 189.381 26.3255C189.381 25.7577 189.878 24.8512 190.297 24.282ZM136.398 6.27179C136.398 6.50224 135.873 7.55595 135.188 9.44679C134.474 11.407 133.788 14.1989 133.788 17.5613C133.788 19.5632 134.293 22.2106 134.706 24.89L133.491 26.5199C131.564 24.1723 130.347 21.5332 130.347 16.999C130.347 10.581 134.253 6.12879 136.255 6.12879C136.365 6.12879 136.398 6.16211 136.398 6.27179ZM130.088 25.1538C130.764 26.0603 131.599 26.928 132.583 27.8721C130.575 31.0831 128.988 34.8954 128.988 38.2953C128.988 40.7456 129.559 42.6017 131.377 42.6017C135.157 42.6017 137.993 34.751 137.993 28.9313C137.993 27.196 137.919 25.4564 137.767 23.7225C139.17 22.2412 141.319 20.2462 141.856 20.0574C141.628 20.8515 141.471 21.6845 141.471 22.4703C141.471 25.6425 143.289 28.6703 146.812 28.6703C150.102 28.6703 152.599 25.9854 152.599 22.2412C152.599 21.7581 152.564 21.3374 152.523 20.8862C153.736 20.6599 154.841 20.3503 155.894 19.7187V27.3084C155.894 28.2858 156.571 28.6703 157.21 28.6703C158.092 28.6703 158.546 28.0622 159.186 26.6726C159.713 25.5342 161.155 22.9312 162.027 21.3777C162.706 20.1657 163.084 19.3785 163.395 19.3785C163.466 19.3785 163.537 19.5632 163.537 20.0172V26.4768C163.537 28.215 164.442 28.6703 165.238 28.6703C165.998 28.6703 166.485 28.2552 166.987 27.5736C168.949 24.7762 171.033 21.4568 171.864 20.0172C172.015 19.7589 172.208 19.5632 172.354 19.5632C172.501 19.5632 172.585 19.6451 172.585 20.1296V26.8947C172.585 28.1011 172.959 28.6703 173.904 28.6703C174.775 28.6703 175.342 28.0622 175.686 27.3459C176.935 24.7401 178.789 21.3013 179.58 19.9477C179.774 19.6451 179.962 19.3785 180.08 19.3785C180.227 19.3785 180.269 19.5632 180.269 20.0574V26.4768C180.269 28.215 181.169 28.6703 181.962 28.6703C183.03 28.6703 183.711 27.9109 184.387 27.046C185.636 25.4148 187.457 22.5188 188.553 20.6599C188.928 21.2666 189.349 21.9857 189.693 22.7771C188.774 23.8724 187.876 25.1149 187.876 26.4352C187.876 27.8346 188.848 28.6703 189.878 28.6703C191.616 28.6703 193.203 27.003 193.203 24.704C193.203 23.8002 192.94 22.8534 192.599 21.9496C194.149 20.435 196.005 18.9621 197.368 18.6233C196.725 19.5285 196.195 20.814 196.195 22.4703C196.195 25.6425 198.013 28.6703 201.533 28.6703C204.939 28.6703 207.317 25.9854 207.317 22.2412C207.317 21.1542 207.282 21.0042 207.211 20.553C207.998 20.2087 208.683 19.6826 209.219 19.2619C209.663 18.9218 210.011 18.7316 210.271 18.7316C210.613 18.7316 210.773 18.9968 210.773 19.4868V26.8947C210.773 28.1011 211.146 28.6703 212.092 28.6703C212.959 28.6703 213.569 28.0622 213.911 27.3459C215.152 24.7401 216.972 21.2666 217.763 19.9477C217.953 19.6451 218.107 19.4133 218.221 19.4133C218.376 19.4133 218.449 19.5285 218.449 20.0172V25.9146C218.449 27.5736 219.199 28.6703 220.869 28.6703C222.615 28.6703 223.483 27.003 225 24.4361C225.071 24.282 225.107 24.1723 225.107 24.0626C225.107 23.7225 224.804 23.5295 224.503 23.5295C224.165 23.5295 223.972 23.8724 222.839 25.1149C222.615 25.3509 222.384 25.6786 221.97 25.6786C221.814 25.6786 221.707 25.4967 221.707 25.2662V18.6553C221.707 16.8796 220.902 16.1633 219.881 16.1633C219.053 16.1633 218.376 16.5034 217.654 17.5613C216.364 19.4535 215.043 22.1371 214.33 23.4892C214.248 23.6475 214.138 23.8724 214.057 23.8724C213.976 23.8724 213.947 23.7558 213.947 23.4892V18.6553C213.947 17.2614 213.569 16.1633 212.092 16.1633C210.537 16.1633 209.746 17.2225 208.613 18.0139C207.886 18.5484 207.248 18.9218 206.751 19.1481C206.001 17.2225 204.596 16.2466 203.428 16.2757C202.248 16.316 201.423 17.0379 201.423 18.2471C201.423 19.4868 202.18 20.3503 203.193 20.7349C203.762 20.9612 204.292 21.0042 205.059 21.0042C205.28 21.0042 205.5 21.0042 205.661 20.9612C205.735 21.3374 205.696 21.8733 205.696 22.287C205.696 24.1404 204.596 25.9854 202.55 25.9854C200.433 25.9854 199.189 23.946 199.189 21.6067C199.189 19.8297 199.715 18.3596 200.582 17.3433C200.927 16.9629 201.194 16.7325 201.194 16.384C201.194 16.2077 200.927 16.1633 200.7 16.1633C199.268 16.1633 197.674 16.8075 196.576 17.3711C195.136 18.1277 193.433 19.3786 192.037 20.6238C191.354 19.1092 190.526 17.7876 190.105 16.7644C189.949 16.3493 189.846 15.8676 189.531 15.8676C189.27 15.8676 189.154 16.1314 188.968 16.652C188.285 18.6553 184.655 24.5138 183.86 25.3065C183.784 25.4148 183.671 25.5342 183.631 25.5342C183.56 25.5342 183.518 25.4967 183.518 25.2662V18.6553C183.518 16.8796 182.804 16.1633 181.811 16.1633C180.977 16.1633 180.269 16.5034 179.58 17.5613C178.33 19.4535 176.82 22.2106 176.101 23.567C175.989 23.8002 175.878 23.8724 175.842 23.8724C175.799 23.8724 175.76 23.7225 175.76 23.4892V18.6553C175.76 16.8796 175.046 16.1633 174.061 16.1633C173.226 16.1633 172.426 16.4729 171.789 17.5613C170.194 20.2462 167.549 24.3625 167.054 25.0372C166.987 25.1538 166.906 25.2302 166.826 25.2662C166.759 25.2662 166.714 25.1927 166.714 25.0053V18.6553C166.714 16.8796 165.998 16.1633 165.01 16.1633C163.644 16.1633 162.892 17.4155 162.397 18.2041C161.717 19.2994 160.814 20.7752 160.092 22.1371C159.603 23.0478 159.186 23.8724 159.034 23.8724C158.958 23.8724 158.958 23.5295 158.958 22.8895V17.8306C161.345 15.1818 162.816 11.9374 162.816 8.38753C162.816 6.34398 161.91 5.21669 160.505 5.21669C157.897 5.21669 155.894 9.29685 155.894 14.1267V18.0541C154.679 18.8107 153.544 19.18 152.141 19.4535C151.427 17.3433 149.912 16.2466 148.709 16.2757C147.528 16.316 146.698 17.0379 146.698 18.2471C146.698 20.2462 148.66 21.0764 150.405 21.0764H150.9C150.97 21.4568 150.97 21.8733 150.97 22.287C150.97 24.1404 149.876 25.9854 147.831 25.9854C145.71 25.9854 144.468 23.946 144.468 21.6067C144.468 19.8297 144.997 18.3595 145.861 17.3433C146.2 16.9629 146.467 16.6228 146.467 16.384C146.467 16.2077 146.2 16.1633 145.976 16.1633C144.536 16.1633 141.36 18.0972 137.571 21.8733C137.238 18.851 136.856 15.9023 136.856 13.0313C136.856 9.82301 137.499 7.09781 137.65 6.31205C137.725 5.82476 137.767 5.51795 137.767 5.29582C137.767 4.99179 137.613 4.8363 137.204 4.8363C134.137 4.8363 127.4 9.71056 127.4 16.999C127.4 19.9783 128.043 22.0982 129.178 23.946C128.755 23.8724 128.423 23.8724 128.112 23.8724C126.906 23.8724 125.767 24.1723 125.06 24.3264V23.567C125.06 21.9496 124.676 19.7187 123.993 18.9621C123.912 18.8843 123.799 18.851 123.693 18.851C123.382 18.851 123.009 18.9968 122.594 19.2258C122.135 19.4535 121.682 19.6826 121.682 19.8297C121.682 19.9019 121.682 19.9783 121.796 20.1657C122.063 20.553 122.784 21.3013 123.044 23.0811C121.754 21.7955 120.285 21.225 118.362 21.225C116.087 21.225 115.402 22.2412 115.402 23.2671C115.402 25.2302 118.014 26.2117 121.311 26.2117C121.915 26.2117 122.594 26.0978 123.272 25.9437C123.272 26.549 123.348 27.0849 123.348 27.5347C123.348 28.1775 123.458 28.6703 123.88 28.6703C124.521 28.6703 124.903 27.3806 124.975 25.5342C126.148 25.2302 127.361 24.9692 128.387 24.9692C128.876 24.9692 129.489 25.0372 130.088 25.1538ZM122.633 24.7762C121.996 24.8511 121.608 24.8511 120.933 24.8511C119.453 24.8511 118.362 24.2819 118.362 23.4587C118.362 22.9312 118.623 22.6243 119.38 22.6243C120.594 22.6243 121.572 23.4587 122.633 24.7762Z" fill="white"/>
</svg>
