<svg width="241" height="47" viewBox="0 0 241 47" fill="none" xmlns="http://www.w3.org/2000/svg">
<path d="M55.5391 40.1758H185.165V29.6943H55.5391V40.1758Z" fill="white"/>
<path d="M106.136 12.563C106.136 14.2354 105.477 14.6602 103.852 14.6602H101.545V10.6302H103.876C105.572 10.6302 106.136 11.0773 106.136 12.563ZM111.905 12.3502C111.905 8.41489 109.15 6.50537 103.97 6.50537H96.0352V24.1802H101.545V18.3607H103.83L106.82 24.1802H113.318L108.797 17.2987C110.775 16.592 111.905 14.6359 111.905 12.3502Z" fill="white"/>
<path d="M156.298 19.8206V17.1345H163.481V13.2702H156.298V10.9125H164.987L164.894 6.50537H150.789V24.1802H165.246L165.34 19.8206H156.298Z" fill="white"/>
<path d="M147.472 24.1802V6.50537H141.985V13.0339H136.122V6.50537H130.613V24.1802H136.122V17.535H141.985V24.1802H147.472Z" fill="white"/>
<path d="M128.055 6.9062C126.785 6.48285 124.971 6.17615 123.299 6.17615C116.518 6.17615 113.504 9.68757 113.504 15.2729C113.504 21.3057 116.707 24.5115 122.828 24.5115C124.642 24.5115 126.619 24.0881 128.103 23.4267L127.514 19.3734C126.384 19.821 125.018 20.1043 123.558 20.1043C120.192 20.1043 119.32 18.9495 119.32 15.2966C119.32 11.8319 120.12 10.678 123.511 10.678C125.089 10.678 126.407 10.9128 127.514 11.2186L128.055 6.9062Z" fill="white"/>
<path d="M177.98 12.563C177.98 14.2354 177.321 14.6602 175.696 14.6602H173.388V10.6302H175.719C177.415 10.6302 177.98 11.0773 177.98 12.563ZM183.749 12.3502C183.749 8.41489 180.994 6.50537 175.814 6.50537H167.879V24.1802H173.388V18.3607H175.673L178.662 24.1802H185.16L180.641 17.2987C182.618 16.592 183.749 14.6359 183.749 12.3502Z" fill="white"/>
<path d="M85.9235 17.1111H81.8737L83.3573 12.4921L83.899 10.6536H83.9699L84.488 12.4921L85.9235 17.1111ZM94.3065 24.1802L87.1481 6.50537H80.7671L73.7422 24.1802H79.614L80.5554 21.2116H87.1956L88.1143 24.1802H94.3065Z" fill="white"/>
<path d="M74.2305 10.2492H78.332V6.50012H74.2305V10.2492Z" fill="white"/>
<path d="M89.6055 10.2492H93.7067V6.50012H89.6055V10.2492Z" fill="white"/>
<path d="M67.0767 6.50537L62.8146 13.1278H61.0485V6.50537H55.5391V24.1807H61.0485V17.2773H62.7443L67.0289 24.1807H73.7406L67.6422 14.8721L73.4104 6.50537H67.0767Z" fill="white"/>
</svg>
