<svg width="241" height="47" viewBox="0 0 241 47" fill="none" xmlns="http://www.w3.org/2000/svg">
<path fill-rule="evenodd" clip-rule="evenodd" d="M55.2268 35.314H74.5068V31.6355H59.5274V24.4881C60.4247 24.4881 73.0759 24.4881 73.0759 24.4881V20.7451H59.5274V14.348C60.4328 14.348 74.1107 14.348 74.1107 14.348V10.6614H55.2188V35.314H55.2268Z" fill="white"/>
<path fill-rule="evenodd" clip-rule="evenodd" d="M94.2429 28.5458C92.7151 26.2709 82.198 10.6614 82.198 10.6614H77.6953V35.314H82.0121V17.5828C83.5399 19.8496 93.96 35.314 93.96 35.314H98.5678V10.6614H94.2591V28.5378L94.2429 28.5458Z" fill="white"/>
<path fill-rule="evenodd" clip-rule="evenodd" d="M100.996 10.6692L108.102 35.3218H112.419C112.419 35.3218 116.913 20.0914 117.697 17.4454C118.473 20.0914 122.96 35.3218 122.96 35.3218H127.301L134.374 10.6692H129.637C129.637 10.6692 125.822 25.3914 125.094 28.1906C124.278 25.4156 119.937 10.6692 119.937 10.6692H115.466C115.466 10.6692 111.117 25.3833 110.301 28.1503C109.573 25.3591 105.757 10.6692 105.757 10.6692H100.996Z" fill="white"/>
<path fill-rule="evenodd" clip-rule="evenodd" d="M161.301 23.0203C161.285 26.7311 162.619 30.208 164.955 32.5554C167.234 34.8384 170.314 36 174.098 36C183.305 36 186.603 29.014 186.628 23.0284C186.644 19.1885 185.326 15.6632 183.006 13.3399C180.799 11.1296 177.808 10.0164 174.098 10.0164C165.335 10.0164 161.358 16.5425 161.301 23.0203ZM168.415 15.9617C169.862 14.55 171.786 13.8482 174.146 13.8724C181.68 13.9208 182.23 20.9632 182.222 23.1252C182.206 25.2629 181.583 32.2328 174.09 32.2328C171.64 32.2328 169.668 31.4987 168.237 30.0628C166.652 28.4736 165.747 25.9728 165.747 23.1978V23.1332C165.763 20.2291 166.741 17.6154 168.423 15.9698L168.415 15.9617Z" fill="white"/>
<path d="M35.2777 10.6533H30.9609V35.306H35.2777V10.6533Z" fill="white"/>
<path fill-rule="evenodd" clip-rule="evenodd" d="M53.2165 10.6449H47.8569L35.2461 22.7857L47.8084 35.2895H53.1437L40.6218 22.7937L53.2165 10.653V10.6449Z" fill="white"/>
<path fill-rule="evenodd" clip-rule="evenodd" d="M134.141 23.02C134.141 23.0603 134.141 23.1006 134.141 23.141C134.141 26.7953 135.458 30.2076 137.77 32.5309C140.05 34.83 143.138 35.9916 146.937 35.9916C156.121 35.9916 159.411 29.0056 159.443 23.02C159.475 19.1962 158.158 15.6629 155.846 13.3396C153.639 11.1293 150.648 9.99988 146.937 9.99988C138.142 9.99988 134.173 16.5341 134.141 23.0119V23.02ZM141.214 15.9614C142.661 14.5416 144.593 13.8398 146.953 13.864C154.504 13.9204 155.037 20.9629 155.021 23.1248C155.013 25.2626 154.391 32.2324 146.881 32.2324C144.439 32.2324 142.475 31.4983 141.036 30.0624C139.436 28.4571 138.53 25.9321 138.538 23.1248C138.554 20.2288 139.524 17.6151 141.206 15.9614H141.214Z" fill="white"/>
<path fill-rule="evenodd" clip-rule="evenodd" d="M189.348 35.3459H199.905C205.087 35.3459 210.632 32.111 210.632 23.0438C210.632 18.9135 209.525 15.7109 207.342 13.5409C205.475 11.6774 202.904 10.6932 199.905 10.6932H189.348V35.3459ZM193.656 14.5492C194.489 14.5492 199.905 14.5492 199.905 14.5492C203.874 14.5492 206.243 17.7276 206.243 23.0438C206.243 28.3599 203.874 31.4818 199.905 31.4818H193.656V14.5412V14.5492Z" fill="white"/>
</svg>
