<svg width="241" height="47" viewBox="0 0 241 47" fill="none" xmlns="http://www.w3.org/2000/svg">
<g clip-path="url(#clip0_6188_934)">
<g clip-path="url(#clip1_6188_934)">
<path d="M101.537 9.20088L102.379 8.53674L104.358 12.5353L109.611 12.5063L113.954 12.4818L114.592 9.28963C117.576 9.53448 121.832 8.73567 121.948 4.88092C122.016 2.58245 120.735 1.09808 116.919 1.01698L111.42 0.900679L105.826 0.782848L102.598 3.874L103.205 0.727758L97.8485 0.614518L95.3147 12.5874L100.877 12.5568L101.537 9.20394V9.20088ZM115.499 4.06834H116.778C117.318 4.10048 117.657 4.64832 117.529 5.20381C117.408 5.76082 116.862 6.11738 116.322 6.08218L115.096 6.0883L115.5 4.06834H115.499ZM111.309 1.52962L109.421 12.1711L105.893 5.94905L111.31 1.53115L111.309 1.52962ZM122.945 12.4298L127.294 12.4053L132.644 1.82955L135.356 6.19848L129.984 12.3915L134.88 12.364L137.733 8.4388L138.247 9.11671L137.928 12.3471L142.291 12.3226L142.545 9.12742L143.247 8.46788L145.202 12.3073L149.324 12.2844L145.85 6.3913L150.406 1.72856L145.539 1.62603L142.904 4.59935L143.145 1.57553L139.002 1.4883L138.723 4.30248L136.827 1.4424L132.883 1.35976L128.816 1.27407L126.891 4.84266L125.757 1.20979L121.411 1.11798L124.442 9.58498L122.945 12.4359V12.4298ZM154.092 12.2538L154.2 9.69516L154.883 8.84585L156.901 12.2369L160.932 12.214L162.876 12.2033L163.338 10.748H165.995L166.328 12.1849L169.831 12.165L166.682 2.06828L163.396 1.99941L159.878 10.4634L157.482 6.47699L161.317 1.95504L156.883 1.86169L154.413 4.59935L154.53 1.81119L150.666 1.73009L149.98 12.2767L154.091 12.2538H154.092ZM164.876 5.91385L165.533 8.74945H163.974L164.876 5.91385ZM94.8173 31.8841C96.5922 31.7877 98.3443 31.7265 99.6295 31.5291C101.417 31.2536 102.826 30.5681 103.944 29.5367C105.029 28.5374 105.967 27.1341 105.99 25.3621C106.008 23.867 105.231 23.1095 104.393 22.3765C105.047 21.945 105.558 21.4936 105.909 20.8799C107.406 18.2524 105.847 15.8331 103.745 15.1995C102.445 14.8598 100.84 14.8843 98.7884 14.9149L91.885 14.9838L87.9914 32.256L94.8143 31.8856L94.8173 31.8841ZM97.1854 19.1094L99.9915 19.0237C100.548 19.0237 100.898 19.5409 100.769 20.0964C100.644 20.6504 100.086 21.0329 99.5307 21.0329L96.7641 21.1171L97.1854 19.1094ZM95.9382 25.053L98.9862 24.8969C99.5428 24.8969 99.8926 25.3514 99.7634 25.9115C99.6386 26.4731 99.0805 26.926 98.5238 26.926L95.5124 27.0821L95.9382 25.053ZM146.561 29.0745C150.015 28.161 153.838 27.4218 157.624 27.1372L157.718 24.4087L151.829 24.6505L151.902 23.2335L157.511 22.9917L157.648 19.3695L152.095 19.4996L152.167 18.1208L157.94 18.0091L158.069 14.2814L147.569 14.3931L146.564 29.073L146.561 29.0745ZM172.687 13.5989C170.094 13.5989 168.012 15.071 166.95 17.3373L167.022 14.1896L159.493 14.2691L159.076 27.0515C160.678 26.9826 162.263 27.001 163.799 27.1296L164.074 18.1147L166.663 18.0367C166.355 18.9074 166.187 19.8745 166.181 20.9029C166.159 25.0989 168.08 28.2053 172.483 28.2053C176.059 28.2053 178.994 25.4371 179.058 20.9029C179.114 16.8675 176.807 13.5989 172.685 13.5989H172.687ZM174.692 20.8156C174.666 22.5571 173.762 23.968 172.67 23.968C171.578 23.968 170.713 22.5571 170.739 20.8156C170.763 19.0757 171.666 17.6648 172.758 17.6648C173.851 17.6648 174.716 19.0757 174.693 20.8156H174.692ZM147.262 14.3992L140.868 14.4665L137.587 18.3993L137.91 14.4987L132.13 14.5599L131.677 18.5661L128.919 14.5936L122.346 14.667L126.751 20.9733L119.925 30.5206L126.103 30.1855C126.103 30.1855 130.053 24.3215 130.273 23.9588L130.962 24.8923L130.39 29.9529L136.667 29.6117L137.069 24.7224L137.792 23.6834L140.545 29.402L146.332 29.0883L141.891 20.886L147.263 14.3992H147.262ZM113.274 26.2971L113.525 24.7286L120.405 24.4592L120.983 20.3887L114.195 20.5325L114.427 19.0834L121.447 18.9564L122.036 14.667L109.146 14.8032L106.177 31.2674L119.859 30.5252L120.477 26.0262L113.274 26.2986V26.2971ZM79.021 23.2626C80.1921 17.8745 85.1138 15.0358 91.8865 14.9822L95.1382 0.556368C79.2066 0.218177 66.5814 6.32856 63.3631 20.2908C58.7456 40.319 89.0637 51.0584 118.646 31.6928C85.5777 43.1194 76.8811 33.1083 79.021 23.2626Z" fill="white"/>
<path d="M152.185 24.6384L152.665 24.6185L152.738 23.1999L152.258 23.2214L152.185 24.6384ZM152.521 18.1179L152.449 19.4951L152.862 19.486H152.93L153.001 18.1087L152.677 18.1148L152.521 18.1179ZM154.55 9.82994C154.55 9.82994 154.48 11.5025 154.448 12.2524L154.927 12.2493L155.021 10.009L155.339 9.61417L155.077 9.17345L154.55 9.82994ZM149.734 12.2799H149.982L150.013 11.8147L146.896 6.5169L150.604 2.72029L150.652 1.98423L146.294 6.44344L149.734 12.2799ZM109.649 10.8828L106.966 6.15269L111.085 2.79374L111.214 2.06839L106.35 6.03639L109.52 11.6249L109.651 10.8843L109.649 10.8828ZM114.373 24.6965H114.346L113.885 24.7149L113.634 26.285L114.122 26.2666L114.373 24.6965ZM154.787 4.18782L155.032 3.91696L155.29 3.6308L155.366 1.8312L154.887 1.82049L154.787 4.18782ZM143.979 1.58942L143.5 1.57871L143.296 4.15415L143.824 3.55888L143.981 1.58942H143.979ZM143.351 9.51623L143.642 9.24231L143.49 8.94391L143.415 8.797L142.889 9.29281L142.649 12.3197L143.129 12.3166L143.351 9.51623ZM115.946 6.08383L116.35 4.06846H115.862L115.457 6.08689L115.92 6.08383H115.947H115.946ZM158.483 19.3528L158.004 19.3635L157.867 22.9796L158.347 22.9597L158.483 19.3528ZM158.294 18.0047L158.773 17.9955L158.901 14.2754L158.422 14.28L158.294 18.0047ZM104.047 0.744707L103.564 0.733995L103.027 3.464L103.626 2.89015L104.047 0.744707ZM164.43 18.1041L164.153 27.1618C164.313 27.1771 164.472 27.1939 164.63 27.2108L164.909 18.0888L164.755 18.0934L164.43 18.1026V18.1041ZM170.705 12.1605L167.564 2.08676L167.059 2.07604L170.205 12.1636L170.705 12.1605ZM172.448 23.9482C172.521 23.9605 172.595 23.9681 172.67 23.9681C172.836 23.9681 172.995 23.936 173.151 23.8748C171.722 22.9444 171.563 21.4937 171.572 20.828C171.592 19.4018 172.29 18.2908 173.198 18.2464C173.213 18.2464 173.227 18.2464 173.242 18.2464C173.584 18.2464 173.914 18.4362 174.183 18.6566C173.937 18.2296 173.614 17.9159 173.248 17.7659C173.246 17.7659 173.243 17.7659 173.242 17.7659C173.219 17.7659 173.196 17.7659 173.173 17.7675C172.58 17.7965 172.043 18.1424 171.66 18.7407C171.304 19.2962 171.103 20.0353 171.093 20.8234C171.087 21.2381 171.143 22.0583 171.584 22.877C171.806 23.2887 172.095 23.6468 172.448 23.9513V23.9482ZM157.979 27.1128C158.139 27.1021 158.3 27.0929 158.46 27.0822L158.553 24.3752L158.072 24.3951L157.978 27.1128H157.979ZM161.777 1.96586L157.92 6.51384L160.049 10.0579L160.278 9.50705L158.509 6.5628L162.395 1.97964L161.776 1.96586H161.777ZM163.712 10.7496L163.249 12.2034L163.753 12.2003L164.214 10.7496H163.71H163.712ZM165.033 6.59341L164.348 8.75109H164.851L165.246 7.50851L165.14 7.05249L165.033 6.59341ZM167.319 16.6473C167.471 16.3979 167.637 16.1607 167.815 15.9373L167.855 14.182L167.376 14.1866L167.319 16.6473ZM130.504 24.2727L126.547 30.1611L127.147 30.129L130.807 24.6843L130.717 24.5619L130.504 24.2727ZM138.247 9.1153L137.956 8.73273L135.321 12.3595L135.917 12.3564L138.242 9.15662L138.247 9.1153ZM127.692 12.4023L128.23 12.3993L133.156 2.65755L132.86 2.1801L127.69 12.4023H127.692ZM127.442 3.80984L126.635 1.22062L126.13 1.20991L127.124 4.399L127.442 3.80984ZM102.475 8.73273L102.378 8.53686L101.961 8.86434L101.235 12.5523L101.724 12.5492L102.473 8.73273H102.475ZM137.967 24.0508L137.412 24.848L137.021 29.5919L137.503 29.5659L137.877 25.0179L138.204 24.5481L138.175 24.4869L137.966 24.0523L137.967 24.0508ZM137.981 17.9251L138.145 17.7292L138.515 17.2854L138.746 14.4881L138.265 14.4927L137.981 17.9235V17.9251ZM178.01 15.5011C177.097 14.586 175.878 14.0183 174.375 13.801C175.45 14.0719 176.355 14.6059 177.075 15.3343C177.288 15.4889 177.487 15.6587 177.672 15.8439C179.227 17.4002 179.43 19.6849 179.412 20.9076C179.403 21.5151 179.284 23.6422 178.116 25.477C176.913 27.3638 175.018 28.3218 172.483 28.3218C171.989 28.3218 171.464 28.2345 170.948 28.0647C169.73 27.8259 168.761 27.2903 168.024 26.5283C168.392 27.0379 168.862 27.4862 169.417 27.855C170.338 28.4671 171.427 28.8023 172.483 28.8023C173.929 28.8023 175.201 28.4993 176.261 27.9025C177.169 27.3913 177.929 26.6629 178.519 25.7356C179.756 23.7937 179.882 21.5534 179.891 20.9137C179.91 19.6145 179.689 17.1829 178.01 15.5011ZM146.577 28.8007L146.638 27.9071L142.89 20.9856L147.493 15.4277L147.549 14.612L142.314 20.929L146.577 28.8023V28.8007ZM137.26 1.44863L138.779 3.73945L138.854 2.9835L137.844 1.46087L137.26 1.44863ZM121.023 2.0133C120.511 1.6996 119.903 1.4624 119.203 1.3002C120.543 1.65216 121.324 2.31783 121.69 3.22528C121.952 3.55582 122.136 3.9292 122.233 4.3332C122.613 5.92927 121.642 7.80998 119.972 8.70672C118.387 9.55908 116.54 9.68609 115.582 9.68609C115.415 9.68609 115.248 9.68303 115.082 9.67538L114.878 9.66773L114.315 12.4788L114.805 12.4758L115.267 10.1635C115.372 10.1666 115.477 10.1681 115.582 10.1681C116.586 10.1681 118.519 10.0335 120.197 9.13213C121.798 8.27059 122.819 6.57811 122.791 4.97132L122.052 2.90698C121.778 2.56573 121.433 2.2658 121.021 2.0133H121.023ZM129.348 14.5906L131.737 18.0322L131.794 17.541L131.82 17.3084L129.929 14.5845L129.35 14.5906H129.348ZM95.9881 0.579437L95.4999 0.568726L92.2527 14.9778L92.7455 14.9732L95.9881 0.579437ZM98.0429 19.0835L97.7752 19.0911L97.5501 19.0988L97.1288 21.1065L97.6216 21.0912L98.0429 19.0835ZM95.8786 27.0639L96.3729 27.0379L96.7988 25.0087L96.4353 25.0271L96.303 25.0332L95.8771 27.0623L95.8786 27.0639ZM106.635 26.8527C106.851 26.0799 106.823 25.2964 106.554 24.5879C106.302 23.9237 105.848 23.3285 105.205 22.8112C105.828 22.4287 106.394 21.7707 106.797 20.9504C107.286 19.9527 107.454 18.8448 107.26 17.9144C107.05 16.9136 106.247 15.29 103.263 15.091C103.428 15.1216 103.59 15.1583 103.746 15.1981C104.326 15.3726 104.866 15.6848 105.31 16.0979C106.104 16.5142 106.612 17.1599 106.79 18.0123C107.176 19.8563 105.941 22.0048 104.66 22.5526L104.616 22.5725C105.109 23.0178 105.556 23.4968 105.8 24.1594C106.297 24.9291 106.431 25.8045 106.174 26.7226C105.876 27.7846 105.08 28.8038 103.933 29.5934C103.865 29.6408 103.797 29.6852 103.727 29.7311C102.68 30.6248 101.39 31.2308 99.7935 31.5032C101.421 31.3792 102.942 30.8589 104.204 29.9913C105.444 29.1389 106.308 28.0249 106.636 26.8542L106.635 26.8527ZM120.765 24.4456L121.252 24.4272L121.827 20.372L121.342 20.3827L120.765 24.4471V24.4456ZM121.806 18.9504L122.291 18.9412L122.79 15.3022L122.385 14.7237L121.806 18.9504ZM94.1022 35.9456C88.0945 35.9456 83.6991 34.4214 81.3918 31.5369C79.7097 29.4343 79.1576 26.5589 79.8344 23.4417C80.8656 18.6979 85.1835 15.9281 91.6961 15.824L91.8056 15.3404C84.9873 15.417 80.4565 18.3306 79.3675 23.3392C78.6587 26.6033 79.2443 29.6225 81.0192 31.8399C83.4207 34.8407 87.944 36.4276 94.1022 36.4276C100.26 36.4276 108.111 34.8591 117.328 31.7649L115.479 31.8659C107.048 34.5744 99.8665 35.9471 94.1007 35.9471L94.1022 35.9456ZM120.288 30.0127L120.887 29.1756L121.324 25.9942L120.837 26.0126L120.288 30.0127ZM115.273 19.0682L114.787 19.0774L114.556 20.525L114.726 20.522L115.042 20.5158L115.273 19.0697V19.0682Z" fill="#FEBE10"/>
<path d="M147.822 29.673C146.966 29.8077 146.153 30.0403 144.932 30.3846C145.016 30.4886 145.446 30.9049 145.945 30.7794C146.867 31.0824 147.052 31.9301 147.904 32.4412C149.215 33.2462 150.748 32.2132 152.725 32.2576C151.112 31.2002 150.368 29.2996 147.822 29.673ZM157.35 28.031C156.499 28.0035 155.312 28.1718 154.199 28.3218C154.321 28.4182 154.668 28.9385 155.247 28.8099C156.147 29.2537 155.986 29.8015 156.699 30.4611C157.804 31.4971 159.448 30.6998 161.369 31.116C160.012 29.7725 159.887 28.1442 157.349 28.031H157.35ZM162.216 27.8458C161.37 27.7433 160.173 27.7999 159.052 27.8458C159.165 27.953 159.463 28.5023 160.052 28.4289C160.908 28.9538 160.601 29.4251 161.253 30.1489C162.258 31.2828 163.968 30.4733 165.843 31.0625C164.516 29.6148 164.77 28.1534 162.216 27.8443V27.8458ZM152.596 28.6431C151.741 28.6951 150.56 28.9706 149.446 29.2139C149.579 29.2996 149.98 29.7786 150.55 29.5949C151.495 29.9561 151.665 30.7916 152.45 31.3808C153.661 32.3096 155.063 31.3242 157.017 31.5537C155.53 30.3448 155.139 28.513 152.596 28.6416V28.6431ZM135.793 35.009L136.219 34.7856C136.347 35.032 136.652 35.8094 136.759 36.7888C137.738 36.5975 138.683 36.3389 139.595 35.9425C138.474 31.494 135.276 32.0617 135.007 32.1551C132.788 32.9187 119.353 38.6465 109.146 40.9082C90.2641 45.0905 72.9423 41.1776 66.7734 40.3267C80.8906 44.9971 98.0649 45.3843 107.119 43.4179C96.1668 46.1739 86.661 46.1387 82.0496 45.8541C87.4458 46.6682 99.4854 47.6277 112.625 43.1027C114.854 42.3406 120.731 39.6932 124.134 38.1002C125.971 37.2402 127.962 36.85 129.055 36.9158C128.549 37.0183 127.511 37.078 124.477 38.4568C124.599 38.57 124.524 38.4858 124.651 38.5991C125.518 39.4025 126.103 40.6879 127.372 40.9465C126.459 40.9817 125.892 40.4186 125.289 39.8263C124.739 39.2877 124.316 38.7705 123.452 38.8653C122.436 38.9755 122.257 39.7223 122.602 40.5349C122.967 41.3888 123.472 41.8157 124.109 42.2319C124.273 41.8585 124.485 41.6321 124.781 41.401C125.414 41.9458 126.289 42.3788 127.46 42.2013C128.159 42.0927 128.824 41.8463 129.457 41.6214C128.851 40.4385 128.056 39.531 127.034 38.9327C128.019 38.6786 128.727 39.3244 129.706 39.2035C130.164 38.1033 130.815 37.1132 131.794 36.3052C131.084 36.1384 130.343 35.7956 129.764 35.4436C130.885 34.9983 132.613 34.299 133.997 33.7267C133.072 36.1307 133.495 38.798 134.893 40.5119C137.2 38.7689 136.065 35.5401 135.79 35.0075L135.793 35.009ZM138.351 32.6631C139.245 31.9913 140.292 30.2667 139.904 29.2261C138.216 29.3547 136.503 30.3203 135.317 31.6164C136.31 31.5093 137.42 31.8016 138.353 32.6631H138.351ZM136.792 37.2647C136.792 37.2739 136.792 37.2846 136.792 37.2937C136.818 38.2502 136.611 39.0964 136.185 39.7973C136.648 40.5257 137.65 41.3796 138.734 41.5357C139.363 40.2074 139.227 38.6603 137.921 37.0214C137.489 37.1331 137.107 37.2111 136.792 37.2647ZM138.689 33.0105C138.893 33.2416 139.084 33.5048 139.261 33.8017C140.932 33.869 142.398 33.3732 143.261 31.5644C142.42 30.8345 141.14 30.634 140.278 30.7319C140.214 30.9171 140.134 31.1084 140.036 31.3012C139.694 31.9822 139.194 32.6157 138.689 33.0105ZM141.189 34.0603C140.705 34.2179 140.169 34.2959 139.524 34.2913C139.788 34.8392 140.006 35.4788 140.161 36.2241C139.54 36.5087 138.953 36.7214 138.421 36.8821C138.771 37.3427 139.026 37.788 139.209 38.2134C140.468 38.143 141.655 37.7865 142.768 37.3366C142.494 36.6725 141.799 34.7076 141.191 34.0587L141.189 34.0603ZM141.55 38.2716C140.753 38.5042 140.035 38.6358 139.382 38.6848C139.598 39.378 139.62 40.0115 139.533 40.567C140.71 41.2097 141.886 41.3092 142.801 41.0337C142.867 40.2961 142.692 39.2341 141.55 38.2701V38.2716ZM144.952 36.0083C144.406 36.2593 143.801 36.3603 143.303 36.3603C143.185 36.3603 143.039 36.3542 142.891 36.3343C143.066 36.7689 143.251 37.2494 143.396 37.6029C142.938 37.7972 142.5 37.964 142.083 38.1033C142.692 38.6802 143.013 39.2831 143.168 39.8401C143.811 39.8233 146.062 39.4468 146.785 39.1867C146.467 38.4445 145.398 36.4169 144.952 36.0068V36.0083ZM141.665 33.8751C142.003 34.3021 142.348 35.0289 142.666 35.7864C143.162 35.9915 144.769 35.9073 145.55 34.9876C145.227 34.3464 144.377 33.1314 143.036 32.81C142.687 33.2324 142.242 33.615 141.665 33.8766V33.8751ZM142.563 30.5835C143.023 30.7763 143.461 31.0564 143.854 31.442C143.717 31.7511 143.55 32.0832 143.335 32.4045C144.064 32.6126 144.637 33.0396 145.063 33.4818C145.845 33.3319 146.704 33.0977 147.691 33.1176C146.091 32.0725 145.256 30.0448 142.561 30.5835H142.563ZM168.803 28.8451C168.3 28.4809 167.825 28.1366 166.849 28.0417C165.938 27.9545 164.639 27.8611 163.887 27.8305C163.991 27.953 164.283 28.5115 164.879 28.5008C165.516 28.9997 165.504 29.7755 166.29 30.3708C167.785 31.5047 169.582 30.5039 170.429 30.1045C170.365 29.9989 169.01 29.0104 168.803 28.8451ZM169.819 25.9544C168.984 26.1289 168.351 26.7731 167.662 27.1037C167.448 27.0516 167.211 27.0103 166.949 26.9843C166.801 26.9705 166.654 26.9568 166.508 26.943C167.849 26.3003 168.654 25.3454 169.714 25.0454C168.262 24.7424 167.016 24.1181 165.782 24.3017C163.997 24.568 164.026 25.933 162.733 26.5528C162.479 26.513 162.233 26.6079 162.052 26.7211C161.737 26.718 161.423 26.718 161.113 26.7211C162.587 26.0692 163.293 24.6353 164.37 23.8228C163.506 23.9406 161.518 23.5198 160.014 24.2038C158.265 24.9995 158.325 26.1289 157.402 26.715C157.144 26.7027 156.935 26.8083 156.771 26.9414C156.435 26.9736 156.1 27.0073 155.769 27.0455C157.306 26.2054 158.153 24.6659 159.118 23.7799C156.9 24.164 154.958 23.8075 153.772 25.0669C153.03 25.8794 153.112 26.617 152.255 27.2858C151.947 27.3026 151.72 27.5077 151.565 27.6882C151.221 27.754 150.877 27.8229 150.534 27.8933C151.883 26.9491 152.319 25.4173 153.598 24.1885C151.387 24.7562 149.528 24.6659 148.453 26.1212C147.798 27.0103 147.849 27.7831 147.051 28.5329C146.798 28.5727 146.622 28.7059 146.488 28.8543C146.216 28.9262 145.944 28.9997 145.671 29.0746C147.14 28.3738 147.057 26.4548 148.205 25.2107C145.831 26.109 144.121 26.0034 143.177 27.477C142.648 28.3325 142.8 29.6531 141.819 30.2392L142.471 30.1091C142.8 30.0433 143.118 30.0096 143.419 30.0096C143.699 30.0096 143.959 30.0387 144.202 30.0908C151.489 27.9851 158.182 26.7226 166.897 27.5612C169.259 27.7892 169.124 29.3776 171.503 29.1848C172.465 29.1206 174.043 28.4335 174.246 27.9652C172.516 27.3363 171.9 25.5214 169.824 25.956L169.819 25.9544Z" fill="#FEBE10"/>
<path d="M144.547 27.8933C144.355 28.2039 144.155 29.0884 144.115 29.2323C144.307 29.2537 144.52 29.2828 144.751 29.3225C144.751 29.3225 145.019 29.2659 145.096 29.2399C145.65 28.6156 146.506 27.0991 146.716 26.6568C145.524 26.9965 145.023 27.1511 144.549 27.8917L144.547 27.8933ZM161.911 28.487C162.064 28.6921 162.423 29.624 162.791 29.9591C163.276 30.4014 164.769 30.155 164.769 30.155C164.248 29.5628 164.089 28.4212 161.911 28.487ZM156.947 28.6768C157.25 29.0869 157.659 29.8581 158.051 30.1183C158.634 30.5039 160.307 30.383 160.307 30.383C159.75 29.7525 159.247 28.3738 156.947 28.6752V28.6768ZM152.267 29.3057C152.606 29.6867 153.083 30.4182 153.496 30.6416C154.111 30.9737 155.765 30.7013 155.765 30.7013C155.156 30.1229 154.53 28.7961 152.267 29.3057ZM147.534 30.3968C147.931 30.6768 148.316 31.3073 148.771 31.5567C149.384 31.8934 151.122 31.468 151.122 31.468C150.565 30.8375 149.479 29.8566 147.534 30.3968ZM143.957 32.149C144.317 32.2469 144.317 32.253 144.558 32.3861C145.171 32.7228 146.176 32.6754 146.176 32.6754C145.484 32.1964 145.14 31.5399 144.284 31.4466C144.2 31.6363 144.068 31.95 143.957 32.149ZM165.861 25.3331C165.556 25.5489 164.949 26.3936 164.737 26.5589C165.192 26.5803 165.621 26.6063 165.867 26.6323C166.555 26.3416 167.77 25.8381 168.413 25.3392C166.751 24.8297 166.137 25.1434 165.863 25.3331H165.861ZM166.915 28.7334C167.191 29.0838 167.122 29.8535 167.989 30.0158C168.404 30.0938 169.171 29.7571 169.245 29.7342C168.617 29.2384 167.42 28.6661 166.915 28.7334ZM140.474 33.0013C141.627 32.9692 142.282 32.5759 142.836 31.7909C142.377 31.569 141.989 31.468 141.551 31.4603C141.253 32.0939 140.865 32.5897 140.474 33.0013ZM138.879 31.5919C139.265 31.1665 139.601 30.582 139.72 30.0846C139.212 30.2147 137.958 30.761 137.67 31.0273C138.039 31.1359 138.679 31.4358 138.879 31.5904V31.5919ZM143.857 33.7083C143.67 33.8843 143.475 34.0342 143.277 34.1674C143.478 34.4903 143.653 34.8422 143.784 35.1422C144.114 35.1636 144.851 34.9937 145.152 34.8223C144.882 34.4398 144.448 33.9593 143.858 33.7083H143.857ZM140.79 39.3902C140.815 39.6396 140.824 39.8814 140.824 40.111C141.346 40.3374 142.467 40.4185 142.512 40.414C142.436 39.9641 141.917 39.2004 141.872 39.1484C141.698 39.2004 141.114 39.3351 140.789 39.3902H140.79ZM141.3 35.0565C141.253 35.0687 141.206 35.0794 141.16 35.0901C141.311 35.4911 141.66 36.876 141.66 36.876C141.66 36.876 140.22 37.3963 140.105 37.4376C140.127 37.4789 140.152 37.5187 140.174 37.5569C140.906 37.4942 141.6 37.2907 142.287 37.0397C142.06 36.4812 141.344 35.1238 141.3 35.0565ZM136.807 33.0595C137.155 33.6578 137.784 35.4084 137.896 35.9257C138.311 35.8308 138.731 35.7221 139.142 35.5875C139.025 35.3105 137.998 33.2982 136.807 33.0595ZM137.514 39.8263C137.812 40.1768 138.234 40.5119 138.696 40.7124C138.93 39.7544 138.238 38.2547 138.009 37.9915C137.977 38.3389 137.809 39.1515 137.516 39.8263H137.514ZM135.361 39.3504C136.229 37.5906 135.633 35.3365 134.904 34.5714C134.523 35.7482 134.282 37.9487 135.361 39.3504ZM144.503 37.1499C144.609 37.5126 144.686 37.8217 144.749 38.1553C144.533 38.2853 144.038 38.4537 143.952 38.4843C144.062 38.6679 144.165 38.8714 144.263 39.0933C144.651 39.075 145.65 38.8944 146.146 38.7766C145.914 38.2272 145.27 37.0259 145.233 36.9708C145.005 37.0443 144.724 37.1132 144.505 37.1484L144.503 37.1499ZM163.105 24.6537C163.105 24.6537 161.534 24.6154 160.804 24.949C159.968 25.3316 159.692 26.2987 159.381 26.5941C159.772 26.5696 160.343 26.5497 160.561 26.5359C161.399 26.1962 162.103 25.7448 163.107 24.6537H163.105ZM169.802 27.0134C170.427 26.8909 170.739 27.1128 170.739 27.1128L169.759 27.5061C170.316 27.7953 171.326 29.0853 173.498 28.0432C172.336 27.4877 171.837 25.9575 169.802 27.0134ZM149.519 26.5068C149.295 26.8037 148.955 27.9545 148.786 28.2452C149.025 28.1886 149.267 28.1305 149.513 28.0754C149.513 28.0754 151.432 26.7226 152.024 25.4785C150.833 25.6958 150.05 25.8243 149.519 26.5068ZM157.445 24.8128C156.251 24.9123 155.563 24.9597 154.873 25.6177C154.605 25.8733 154.041 26.8511 153.864 27.2077C154.159 27.1618 154.692 27.0792 155.02 27.0424C155.399 26.5956 156.407 26.0018 157.443 24.8128H157.445Z" fill="#FFE400"/>
</g>
</g>
<defs>
<clipPath id="clip0_6188_934">
<rect width="240" height="46" fill="white" transform="translate(0.949219 0.718994)"/>
</clipPath>
<clipPath id="clip1_6188_934">
<rect width="117" height="46" fill="white" transform="translate(62.8945 0.542725)"/>
</clipPath>
</defs>
</svg>
