<svg width="61" height="78" viewBox="0 0 61 78" fill="none" xmlns="http://www.w3.org/2000/svg">
<path d="M14.925 3.9376L1.12534 55.1113C0.205361 60.6312 4.57525 63.9277 6.87519 64.886C19.9082 68.9109 46.5492 76.9607 48.8491 76.9607C51.1491 76.9607 52.4907 74.6607 52.874 73.5108C54.9823 60.6694 59.3139 34.1818 59.7738 30.9618C60.2338 27.7419 58.0489 25.4037 56.8989 24.637C45.7825 16.9706 22.8598 1.52266 20.0999 1.06267C17.3399 0.60268 15.5 2.78762 14.925 3.9376Z" stroke="#E63D20"/>
<path d="M52.2983 33.8367L19.5241 32.6868C19.5241 36.8267 17.2242 41.6949 16.0742 43.6115L31.0238 43.0365L21.8241 53.3862C25.504 53.3862 30.6405 55.6862 32.7488 56.8362L52.2983 33.8367Z" fill="#E63D20"/>
</svg>
